<svg width="132" height="32" viewBox="0 0 132 32" fill="none" xmlns="http://www.w3.org/2000/svg">
<path d="M28.7284 16C28.7284 23.3809 22.745 29.3643 15.3641 29.3643C14.1472 29.3643 12.9684 29.2016 11.8481 28.8968C6.17305 27.3532 2 22.1639 2 16C2 8.61924 7.98333 2.63574 15.3641 2.63574C22.745 2.63574 28.7284 8.61924 28.7284 16Z" stroke="#DC2E36" stroke-width="3.34031" stroke-miterlimit="10"/>
<path d="M11.931 28.9688V18.8364H21.1724" stroke="#DC2E36" stroke-width="3.34031" stroke-miterlimit="10"/>
<path d="M10.2607 12.1416H21.2003" stroke="#DC2E36" stroke-width="3.34031" stroke-miterlimit="10"/>
<path d="M46.4321 17.1321H41.2922V22.1938H38.9108V9.80647H46.4363V11.8737H41.2922V15.0728H46.4321V17.1321Z" fill="white"/>
<path d="M52.149 20.1434H57.2055V22.1943H49.7676V9.80643H52.149V20.1434Z" fill="white"/>
<path d="M63.5141 17.5742H66.4037L64.9513 12.9374L63.5141 17.5742ZM67.0468 19.6414H62.8715L62.0774 22.1943H59.5449L63.8477 9.80643H66.0539L70.3807 22.1943H67.8483L67.0468 19.6414Z" fill="white"/>
<path d="M82.4119 18.6207L83.9676 9.80647H86.3412L83.7778 22.1938H81.3801L79.4986 13.9067L77.6177 22.1938H75.2205L72.6566 9.80647H75.0296L76.5938 18.6039L78.4989 9.80647H80.5146L82.4119 18.6207Z" fill="white"/>
<path d="M91.9595 20.1434H97.0154V22.1943H89.5781V9.80643H91.9595V20.1434Z" fill="white"/>
<path d="M107.285 16.8258H102.713V20.144H108.079V22.1938H100.332V9.80647H108.063V11.8737H102.713V14.8257H107.285V16.8258Z" fill="white"/>
<path d="M117.42 18.9438C117.42 18.4612 117.261 18.0914 116.944 17.8334C116.626 17.5753 116.054 17.3031 115.229 17.0162C114.403 16.7298 113.75 16.4476 113.269 16.1696C111.956 15.41 111.3 14.3856 111.3 13.0979C111.3 12.4296 111.476 11.8322 111.828 11.3071C112.18 10.7826 112.685 10.3729 113.344 10.0782C114.002 9.78285 114.742 9.63597 115.562 9.63597C116.388 9.63597 117.123 9.79596 117.769 10.1164C118.414 10.4364 118.916 10.8891 119.273 11.4734C119.631 12.0577 119.809 12.7213 119.809 13.4645H117.427C117.427 12.897 117.261 12.4564 116.928 12.1411C116.594 11.8269 116.126 11.6691 115.523 11.6691C114.94 11.6691 114.488 11.8012 114.166 12.0646C113.842 12.3284 113.681 12.6762 113.681 13.1068C113.681 13.5102 113.87 13.8469 114.248 14.1197C114.627 14.3914 115.184 14.6474 115.919 14.8855C117.274 15.3219 118.261 15.8632 118.881 16.51C119.5 17.1567 119.809 17.9624 119.809 18.9265C119.809 19.9986 119.43 20.8395 118.674 21.449C117.917 22.059 116.899 22.3638 115.617 22.3638C114.729 22.3638 113.919 22.1896 113.189 21.8403C112.459 21.492 111.901 21.0141 111.518 20.4067C111.134 19.8004 110.942 19.0965 110.942 18.2971H113.332C113.332 19.664 114.094 20.3475 115.617 20.3475C116.183 20.3475 116.626 20.2242 116.944 19.9777C117.261 19.7306 117.42 19.386 117.42 18.9438Z" fill="white"/>
<path d="M129.364 18.9438C129.364 18.4612 129.206 18.0914 128.888 17.8334C128.57 17.5753 127.999 17.3031 127.174 17.0162C126.347 16.7298 125.694 16.4476 125.213 16.1696C123.9 15.41 123.244 14.3856 123.244 13.0979C123.244 12.4296 123.42 11.8322 123.772 11.3071C124.124 10.7826 124.63 10.3729 125.288 10.0782C125.947 9.78285 126.687 9.63597 127.507 9.63597C128.332 9.63597 129.068 9.79596 129.713 10.1164C130.359 10.4364 130.861 10.8891 131.218 11.4734C131.575 12.0577 131.753 12.7213 131.753 13.4645H129.372C129.372 12.897 129.206 12.4564 128.872 12.1411C128.538 11.8269 128.07 11.6691 127.467 11.6691C126.885 11.6691 126.432 11.8012 126.11 12.0646C125.787 12.3284 125.625 12.6762 125.625 13.1068C125.625 13.5102 125.815 13.8469 126.193 14.1197C126.571 14.3914 127.128 14.6474 127.864 14.8855C129.218 15.3219 130.206 15.8632 130.825 16.51C131.444 17.1567 131.753 17.9624 131.753 18.9265C131.753 19.9986 131.375 20.8395 130.619 21.449C129.862 22.059 128.843 22.3638 127.562 22.3638C126.673 22.3638 125.863 22.1896 125.134 21.8403C124.403 21.492 123.846 21.0141 123.462 20.4067C123.079 19.8004 122.887 19.0965 122.887 18.2971H125.276C125.276 19.664 126.038 20.3475 127.562 20.3475C128.128 20.3475 128.57 20.2242 128.888 19.9777C129.206 19.7306 129.364 19.386 129.364 18.9438Z" fill="white"/>
</svg>
